<mxfile host="app.diagrams.net" modified="2023-10-17T10:53:07.636Z" agent="Mozilla/5.0 (Macintosh; Intel Mac OS X 10_15_7) AppleWebKit/537.36 (KHTML, like Gecko) Chrome/117.0.0.0 Safari/537.36" version="22.0.4" etag="hbnGKOGR9FJ8eOZP7-6a" type="github">
  <diagram name="第 1 页" id="s4A5-POZe5UU5g7aYAgH">
    <mxGraphModel>
      <root>
        <mxCell id="0" />
        <mxCell id="1" parent="0" />
      </root>
    </mxGraphModel>
  </diagram>
</mxfile>
